<svg width="120" height="60" viewBox="0 0 120 60" fill="none" xmlns="http://www.w3.org/2000/svg">
<path d="M38.6055 7.5H81.3935V49.12H38.6055V7.5Z" fill="#261300"/>
<path d="M36.6602 5.56592V51.0659H83.3402V5.56592H36.6602ZM38.6052 7.51092H81.3932V49.1309H38.6062L38.6052 7.51092ZM52.8622 31.3359L51.3262 37.1709C51.2862 37.3269 51.2292 37.3649 51.0342 37.3649H48.1742C47.9802 37.3649 47.9412 37.3069 47.9802 37.0729L53.5042 17.7409C53.6012 17.3909 53.6602 17.0809 53.6982 16.1269C53.6982 15.9909 53.7562 15.9329 53.8542 15.9329H57.9382C58.0742 15.9329 58.1322 15.9729 58.1712 16.1269L64.3562 37.1119C64.3962 37.2679 64.3562 37.3649 64.2002 37.3649H60.9702C60.8142 37.3649 60.7172 37.3249 60.6782 37.1899L59.0642 31.3359H52.8622ZM58.2692 28.1859L55.9552 19.0459H55.9152C55.5072 21.3219 54.4752 25.1719 53.6592 28.1859H58.2692ZM67.0192 17.3699C67.0192 16.1249 67.8942 15.3859 69.0032 15.3859C70.1892 15.3859 70.9872 16.1829 70.9872 17.3699C70.9872 18.6539 70.1512 19.3539 68.9642 19.3539C67.8362 19.3539 67.0192 18.6539 67.0192 17.3699ZM67.2522 21.7849C67.2522 21.6289 67.3102 21.5519 67.4852 21.5519H70.5382C70.6942 21.5519 70.7712 21.6099 70.7712 21.7849V37.1299C70.7712 37.2859 70.7312 37.3629 70.5382 37.3629H67.5232C67.3292 37.3629 67.2702 37.2659 67.2702 37.1099V21.7859L67.2522 21.7849Z" fill="#FF7C00"/>
</svg>
