<svg xmlns="http://www.w3.org/2000/svg" xmlns:xlink="http://www.w3.org/1999/xlink" width="500" zoomAndPan="magnify" viewBox="0 0 375 374.999991" height="500" preserveAspectRatio="xMidYMid meet" version="1.0"><path fill="#261300" d="M 42.898438 48.5625 L 320.21875 48.5625 L 320.21875 318.050781 L 42.898438 318.050781 Z M 42.898438 48.5625 " fill-opacity="1" fill-rule="nonzero"/><path fill="#ff7c00" d="M 30.292969 36.039062 L 30.292969 330.652344 L 332.835938 330.652344 L 332.835938 36.039062 Z M 42.898438 48.632812 L 320.21875 48.632812 L 320.21875 318.121094 L 42.90625 318.121094 Z M 135.300781 202.898438 L 125.347656 240.679688 C 125.085938 241.691406 124.71875 241.9375 123.453125 241.9375 L 104.917969 241.9375 C 103.660156 241.9375 103.40625 241.5625 103.660156 240.046875 L 139.460938 114.871094 C 140.089844 112.605469 140.472656 110.597656 140.71875 104.421875 C 140.71875 103.542969 141.09375 103.164062 141.730469 103.164062 L 168.199219 103.164062 C 169.082031 103.164062 169.457031 103.425781 169.710938 104.421875 L 209.796875 240.300781 C 210.054688 241.308594 209.796875 241.9375 208.785156 241.9375 L 187.851562 241.9375 C 186.839844 241.9375 186.210938 241.679688 185.957031 240.804688 L 175.496094 202.898438 Z M 170.34375 182.503906 L 155.347656 123.320312 L 155.089844 123.320312 C 152.445312 138.058594 145.753906 162.988281 140.464844 182.503906 Z M 227.054688 112.46875 C 227.054688 104.410156 232.726562 99.625 239.914062 99.625 C 247.601562 99.625 252.773438 104.785156 252.773438 112.46875 C 252.773438 120.785156 247.355469 125.316406 239.664062 125.316406 C 232.351562 125.316406 227.054688 120.785156 227.054688 112.46875 Z M 228.566406 141.058594 C 228.566406 140.046875 228.941406 139.546875 230.078125 139.546875 L 249.863281 139.546875 C 250.875 139.546875 251.375 139.925781 251.375 141.058594 L 251.375 240.417969 C 251.375 241.425781 251.113281 241.925781 249.863281 241.925781 L 230.324219 241.925781 C 229.066406 241.925781 228.683594 241.296875 228.683594 240.285156 L 228.683594 141.0625 Z M 228.566406 141.058594 " fill-opacity="1" fill-rule="nonzero"/></svg>