<svg width="116" height="134" viewBox="0 0 116 134" fill="none" xmlns="http://www.w3.org/2000/svg">
<g opacity="0.61">
<path d="M49.5949 123.594L48.3048 127.037H47.6236L46.3379 123.594H47.0831L47.9897 126.053L48.9094 123.594H49.5949Z" fill="white"/>
<path d="M51.8546 125.891H50.1217C50.1855 126.22 50.4282 126.422 50.7774 126.422C51.0201 126.422 51.1945 126.338 51.352 126.166L51.7054 126.609C51.4926 126.889 51.1732 127.036 50.7602 127.036C49.9684 127.036 49.4531 126.461 49.4531 125.674C49.4531 124.883 49.9767 124.312 50.6751 124.312C51.3476 124.312 51.8671 124.833 51.8671 125.684C51.8673 125.743 51.859 125.827 51.8546 125.891ZM50.1134 125.443H51.2416C51.1947 125.109 50.9776 124.892 50.6797 124.892C50.3772 124.892 50.1603 125.104 50.1134 125.443Z" fill="white"/>
<path d="M52.1406 125.674C52.1406 124.877 52.6728 124.312 53.4178 124.312C53.899 124.312 54.2778 124.553 54.4439 124.986L53.9289 125.305C53.8055 125.055 53.6224 124.942 53.4136 124.942C53.0772 124.942 52.8134 125.212 52.8134 125.674C52.8134 126.137 53.0774 126.407 53.4136 126.407C53.6222 126.407 53.8052 126.299 53.9289 126.043L54.4439 126.368C54.2778 126.79 53.899 127.036 53.4178 127.036C52.6728 127.036 52.1406 126.471 52.1406 125.674Z" fill="white"/>
<path d="M56.3376 126.869C56.2015 126.982 56.0012 127.037 55.7968 127.037C55.2563 127.037 54.9412 126.717 54.9412 126.087V125.001H54.5879V124.41H54.9412V123.766H55.6054V124.41H56.1759V125.001H55.6054V126.078C55.6054 126.304 55.7117 126.427 55.8906 126.427C55.9885 126.427 56.0864 126.393 56.1588 126.328L56.3376 126.869Z" fill="white"/>
<path d="M60.8946 124.352V125.06C60.8394 125.055 60.7967 125.05 60.7456 125.05C60.3795 125.05 60.1369 125.281 60.1369 125.788V127.037H59.4727V124.391H60.1069V124.74C60.2687 124.484 60.5412 124.352 60.8946 124.352Z" fill="white"/>
<path d="M61.0859 126.638L61.32 126.038C61.5713 126.25 61.9457 126.397 62.3035 126.397C62.7123 126.397 62.8781 126.24 62.8781 126.029C62.8781 125.384 61.1453 125.827 61.1453 124.548C61.1453 123.963 61.5541 123.476 62.4011 123.476C62.7758 123.476 63.1591 123.579 63.4356 123.781L63.2227 124.386C62.9459 124.204 62.6608 124.116 62.3967 124.116C61.9882 124.116 61.8307 124.292 61.8307 124.509C61.8307 125.143 63.5632 124.706 63.5632 125.97C63.5632 126.545 63.1503 127.037 62.2988 127.037C61.8267 127.037 61.35 126.875 61.0859 126.638Z" fill="white"/>
<path d="M66.2198 125.891H64.487C64.5508 126.221 64.7935 126.422 65.1426 126.422C65.3853 126.422 65.5598 126.339 65.7173 126.167L66.0706 126.609C65.8576 126.889 65.5384 127.037 65.1254 127.037C64.3336 127.037 63.8184 126.462 63.8184 125.675C63.8184 124.883 64.342 124.312 65.0403 124.312C65.7131 124.312 66.2323 124.834 66.2323 125.685C66.2328 125.744 66.2242 125.827 66.2198 125.891ZM64.4786 125.443H65.6069C65.56 125.109 65.3428 124.893 65.0449 124.893C64.7427 124.893 64.5255 125.104 64.4786 125.443Z" fill="white"/>
<path d="M68.9073 125.891H67.1745C67.2383 126.221 67.481 126.422 67.8301 126.422C68.0728 126.422 68.2473 126.339 68.4048 126.167L68.7581 126.609C68.5451 126.889 68.2259 127.037 67.8129 127.037C67.0211 127.037 66.5059 126.462 66.5059 125.675C66.5059 124.883 67.0295 124.312 67.7278 124.312C68.4004 124.312 68.9198 124.834 68.9198 125.685C68.9201 125.744 68.9115 125.827 68.9073 125.891ZM67.1659 125.443H68.2941C68.2473 125.109 68.0301 124.893 67.7322 124.893C67.4299 124.893 67.2128 125.104 67.1659 125.443Z" fill="white"/>
<path d="M70.3448 125.999L70.0253 126.363V127.037H69.3613V123.388H70.0253V125.453L70.9962 124.391H71.788L70.8343 125.512L71.8732 127.037H71.0684L70.3448 125.999Z" fill="white"/>
<path d="M59.5323 127.396L58.8688 126.63C58.7679 126.766 58.6477 126.883 58.5129 126.974C58.4916 126.992 58.4698 127.01 58.4473 127.027L59.1495 127.839C59.2553 127.961 59.4268 127.961 59.5323 127.839C59.6381 127.717 59.6381 127.519 59.5323 127.396Z" fill="white"/>
<path d="M57.9981 124.15C58.0494 124.103 58.1129 124.074 58.183 124.074C58.1927 124.074 58.2023 124.075 58.2118 124.076C58.1621 124.034 58.1009 124.009 58.0345 124.009C57.9429 124.009 57.8619 124.058 57.8069 124.132C57.7951 124.132 57.7837 124.134 57.7719 124.134C57.7809 124.114 57.7867 124.091 57.7867 124.066C57.7867 124.003 57.7536 123.95 57.7065 123.927C57.7267 123.961 57.7385 124.002 57.7385 124.046C57.7385 124.079 57.7313 124.11 57.7197 124.137C57.0675 124.191 56.5527 124.818 56.5527 125.585C56.5527 126.387 57.1156 127.037 57.8102 127.037C58.5045 127.037 59.0676 126.387 59.0676 125.585C59.0678 124.856 58.6034 124.255 57.9981 124.15ZM57.5339 124.528C57.6348 124.528 57.7297 124.558 57.812 124.611C57.8988 124.545 58.0023 124.507 58.1134 124.507C58.2784 124.507 58.4261 124.591 58.5273 124.723C58.4264 124.622 58.2944 124.56 58.1498 124.56C58.0457 124.56 57.948 124.592 57.8635 124.648C57.8452 124.66 57.8273 124.674 57.8104 124.688C57.7953 124.675 57.7795 124.663 57.7631 124.652C57.6775 124.594 57.5775 124.56 57.4708 124.56C57.4012 124.56 57.3343 124.575 57.2726 124.601C57.3513 124.554 57.4399 124.528 57.5339 124.528ZM58.4129 125.719C58.4396 125.8 58.4549 125.889 58.4549 125.981C58.4549 126.392 58.1663 126.725 57.8104 126.725C57.4545 126.725 57.1661 126.392 57.1661 125.981C57.1661 125.889 57.1815 125.8 57.2081 125.719C57.0643 125.616 56.968 125.433 56.968 125.224C56.968 124.903 57.1933 124.643 57.471 124.643C57.6021 124.643 57.7211 124.701 57.8104 124.796C57.9 124.701 58.019 124.643 58.1501 124.643C58.4278 124.643 58.653 124.903 58.653 125.224C58.653 125.433 58.5568 125.616 58.4129 125.719Z" fill="white"/>
<path d="M58.3888 125.173C58.3888 125.306 58.295 125.414 58.1797 125.414C58.0644 125.414 57.9707 125.306 57.9707 125.173C57.9707 125.039 58.0644 124.931 58.1797 124.931C58.2032 124.931 58.2254 124.936 58.2463 124.944C58.2394 124.96 58.2359 124.979 58.2359 124.998C58.2359 125.072 58.2872 125.131 58.3505 125.131C58.3621 125.131 58.3735 125.129 58.3844 125.125C58.3874 125.14 58.3888 125.156 58.3888 125.173Z" fill="white"/>
<path d="M57.5972 125.173C57.5972 125.274 57.5265 125.355 57.4392 125.355C57.352 125.355 57.2812 125.274 57.2812 125.173C57.2812 125.072 57.352 124.99 57.4392 124.99C57.4569 124.99 57.4738 124.994 57.4896 125C57.4842 125.012 57.4817 125.026 57.4817 125.041C57.4817 125.096 57.5204 125.141 57.5685 125.141C57.5773 125.141 57.5859 125.14 57.594 125.137C57.5961 125.148 57.5972 125.16 57.5972 125.173Z" fill="white"/>
<path d="M56.4984 125.379H56.3555V125.544H56.4984V125.379Z" fill="white"/>
<path d="M59.264 125.379H59.1211V125.544H59.264V125.379Z" fill="white"/>
<path d="M59.2081 125.447H59.1756C59.1756 124.576 58.5627 123.868 57.8091 123.868C57.0556 123.868 56.4426 124.576 56.4426 125.447H56.4102C56.4102 125.015 56.5556 124.609 56.8199 124.304C57.0841 123.999 57.4354 123.831 57.8091 123.831C58.1829 123.831 58.5341 123.999 58.7984 124.304C59.0626 124.609 59.2081 125.015 59.2081 125.447Z" fill="white"/>
<path d="M57.8812 123.767H57.7383V123.932H57.8812V123.767Z" fill="white"/>
<path d="M58.7905 123.831H56.8301V123.868H58.7905V123.831Z" fill="white"/>
<path d="M56.882 123.857C56.882 123.886 56.8615 123.909 56.8365 123.909C56.8114 123.909 56.791 123.886 56.791 123.857C56.791 123.828 56.8114 123.804 56.8365 123.804C56.8615 123.804 56.882 123.828 56.882 123.857Z" fill="white"/>
<path d="M58.8351 123.857C58.8351 123.886 58.8147 123.909 58.7896 123.909C58.7646 123.909 58.7441 123.886 58.7441 123.857C58.7441 123.828 58.7646 123.804 58.7896 123.804C58.8149 123.804 58.8351 123.828 58.8351 123.857Z" fill="white"/>
<path d="M72.9313 126.874C72.9313 127.292 72.3828 127.292 72.3828 126.874C72.383 126.456 72.9313 126.456 72.9313 126.874Z" fill="white"/>
<path d="M37.5245 125.036L37.9356 126.667L38.3659 125.036H38.8798L38.2249 127.217H37.6843L37.4901 126.575L37.3226 125.849L37.1551 126.575L36.9609 127.217H36.4204L35.7617 125.036H36.2793L36.7097 126.667L37.1171 125.036H37.5245Z" fill="white"/>
<path d="M40.9991 125.036L41.4102 126.667L41.8405 125.036H42.3544L41.6995 127.217H41.1589L40.9647 126.575L40.7972 125.849L40.6297 126.575L40.4355 127.217H39.895L39.2363 125.036H39.7539L40.1843 126.667L40.5917 125.036H40.9991Z" fill="white"/>
<path d="M44.4717 125.036L44.8828 126.667L45.3132 125.036H45.8271L45.1721 127.217H44.6316L44.4374 126.575L44.2699 125.849L44.1024 126.575L43.9082 127.217H43.3676L42.709 125.036H43.2266L43.6569 126.667L44.0643 125.036H44.4717Z" fill="white"/>
<path d="M46.6109 126.904C46.6109 127.322 46.0625 127.322 46.0625 126.904C46.0627 126.486 46.6109 126.486 46.6109 126.904Z" fill="white"/>
<path d="M74.8692 126.874C74.6523 127.12 74.424 127.217 74.146 127.217C73.6018 127.217 73.1484 126.839 73.1484 126.07C73.1484 125.3 73.6015 124.921 74.146 124.921C74.4126 124.921 74.6182 125.01 74.8237 125.243L74.5305 125.599C74.42 125.484 74.2832 125.427 74.1539 125.427C73.8417 125.427 73.6134 125.691 73.6134 126.07C73.6134 126.483 73.857 126.703 74.1463 126.703C74.2947 126.703 74.4432 126.654 74.5574 126.522L74.8692 126.874Z" fill="white"/>
<path d="M76.9803 126.087C76.9803 126.711 76.6112 127.217 76.002 127.217C75.3927 127.217 75.0273 126.711 75.0273 126.087C75.0273 125.467 75.4006 124.957 75.9983 124.957C76.5961 124.957 76.9803 125.467 76.9803 126.087ZM75.4918 126.087C75.4918 126.417 75.6633 126.725 76.002 126.725C76.3407 126.725 76.5121 126.417 76.5121 126.087C76.5121 125.761 76.314 125.445 76.002 125.445C75.667 125.445 75.4918 125.761 75.4918 126.087Z" fill="white"/>
<path d="M78.5496 127.217V126.056C78.5496 125.77 78.42 125.511 78.165 125.511C77.914 125.511 77.7655 125.77 77.7655 126.056V127.217H77.3008V125.044H77.7311L77.7655 125.308C77.8643 125.089 78.0815 125.009 78.2603 125.009C78.4851 125.009 78.7097 125.115 78.8162 125.414C78.9839 125.106 79.2009 125.018 79.4445 125.018C79.9774 125.018 80.2402 125.396 80.2402 126.047V127.217H79.7755V126.047C79.7755 125.761 79.673 125.519 79.4215 125.519C79.1705 125.519 79.0141 125.77 79.0141 126.056V127.217H78.5496V127.217Z" fill="white"/>
</g>
<g opacity="0.61">
<path d="M80.2706 115.588C80.2692 115.26 80.0482 115.02 79.7628 115.015C79.5484 115.011 79.5698 115.047 79.5693 114.782C79.5686 114.488 79.5677 114.194 79.57 113.9C79.5707 113.799 79.544 113.715 79.486 113.639C78.9427 112.924 78.4007 112.207 77.8576 111.492C77.8298 111.455 77.7938 111.426 77.7616 111.394C76.3199 111.394 74.8785 111.394 73.4368 111.394C73.2526 111.472 73.1724 111.626 73.1728 111.852C73.1752 112.856 73.1738 113.86 73.1738 114.865C73.1738 115.014 73.1731 115.023 73.0462 115.012C72.6989 114.985 72.4624 115.277 72.4669 115.68C72.4771 116.612 72.4699 117.544 72.4701 118.475C72.4703 118.899 72.6712 119.13 73.0385 119.132C73.1735 119.132 73.1735 119.132 73.1735 119.292C73.1735 119.887 73.1733 120.482 73.1738 121.076C73.174 121.396 73.3083 121.551 73.5839 121.551C75.4429 121.551 77.3022 121.551 79.1612 121.551C79.4322 121.551 79.5684 121.395 79.5688 121.083C79.5693 120.479 79.5688 119.874 79.5691 119.27C79.5691 119.132 79.5695 119.133 79.6897 119.132C79.7526 119.131 79.8152 119.134 79.8774 119.116C80.1085 119.05 80.2695 118.836 80.2704 118.561C80.2741 117.571 80.2746 116.579 80.2706 115.588ZM73.67 111.8C74.9082 111.8 76.1464 111.8 77.3843 111.8C77.5115 111.8 77.5129 111.801 77.5129 111.95C77.5131 112.551 77.5126 113.152 77.5131 113.754C77.5133 113.971 77.5709 114.037 77.759 114.037C78.2021 114.038 78.6455 114.037 79.0886 114.038C79.1949 114.038 79.1997 114.043 79.2002 114.167C79.2009 114.405 79.2007 114.643 79.2002 114.88C79.2 115.008 79.1946 115.014 79.0833 115.014C78.1796 115.015 77.276 115.014 76.3726 115.014C75.472 115.014 74.5711 115.014 73.6705 115.014C73.5429 115.014 73.5424 115.014 73.5424 114.864C73.5422 113.893 73.5422 112.922 73.5424 111.95C73.5424 111.801 73.5433 111.8 73.67 111.8ZM79.0721 121.023C78.1713 121.024 77.2704 121.023 76.3693 121.023C75.4713 121.023 74.5732 121.023 73.6751 121.023C73.5424 121.023 73.5419 121.023 73.5419 120.868C73.5417 120.333 73.5417 119.798 73.5422 119.263C73.5422 119.138 73.5475 119.132 73.6531 119.132C75.4634 119.132 77.2739 119.132 79.0842 119.132C79.1951 119.132 79.2 119.137 79.2 119.267C79.2004 119.802 79.2002 120.337 79.2 120.872C79.2004 121.022 79.1993 121.023 79.0721 121.023Z" fill="white"/>
<path d="M76.3705 111.771H75.9629V112.053H76.3705V111.771Z" fill="white"/>
<path d="M75.9623 112.053H75.5547V112.335H75.9623V112.053Z" fill="white"/>
<path d="M76.3705 112.335H75.9629V112.618H76.3705V112.335Z" fill="white"/>
<path d="M75.9623 112.618H75.5547V112.901H75.9623V112.618Z" fill="white"/>
<path d="M76.3705 112.9H75.9629V113.183H76.3705V112.9Z" fill="white"/>
<path d="M75.9623 113.183H75.5547V113.466H75.9623V113.183Z" fill="white"/>
<path d="M76.3705 113.466H75.9629V113.748H76.3705V113.466Z" fill="white"/>
<path d="M75.9623 113.748H75.5547V114.031H75.9623V113.748Z" fill="white"/>
<path d="M76.3705 114.031H75.9629V114.313H76.3705V114.031Z" fill="white"/>
<path d="M75.9623 114.313H75.5547V114.595H75.9623V114.313Z" fill="white"/>
<path d="M76.3705 114.596H75.9629V114.878H76.3705V114.596Z" fill="white"/>
<path d="M75.9623 114.878H75.5547V115.16H75.9623V114.878Z" fill="white"/>
<path d="M43.5324 115.588C43.531 115.26 43.3099 115.02 43.0245 115.015C42.8101 115.011 42.8315 115.047 42.831 114.782C42.8303 114.488 42.8294 114.194 42.8317 113.9C42.8324 113.799 42.8057 113.715 42.7477 113.639C42.2044 112.924 41.6624 112.207 41.1193 111.492C41.0915 111.455 41.0555 111.426 41.0233 111.394C39.5816 111.394 38.1402 111.394 36.6986 111.394C36.5144 111.472 36.4341 111.626 36.4346 111.852C36.4369 112.856 36.4355 113.86 36.4355 114.865C36.4355 115.014 36.4348 115.023 36.3079 115.012C35.9606 114.985 35.7242 115.277 35.7286 115.68C35.7388 116.612 35.7316 117.544 35.7318 118.475C35.7321 118.899 35.933 119.13 36.3002 119.132C36.4352 119.132 36.4352 119.132 36.4352 119.292C36.4352 119.887 36.435 120.482 36.4355 121.076C36.4357 121.396 36.57 121.551 36.8457 121.551C38.7047 121.551 40.5639 121.551 42.4229 121.551C42.6939 121.551 42.8301 121.395 42.8306 121.083C42.831 120.479 42.8306 119.874 42.8308 119.27C42.8308 119.132 42.8313 119.133 42.9514 119.132C43.0143 119.131 43.0769 119.134 43.1391 119.116C43.3702 119.05 43.5312 118.836 43.5321 118.561C43.5358 117.571 43.5365 116.579 43.5324 115.588ZM36.932 111.8C38.1701 111.8 39.4083 111.8 40.6463 111.8C40.7734 111.8 40.7748 111.801 40.7748 111.95C40.775 112.551 40.7746 113.152 40.775 113.754C40.7753 113.971 40.8328 114.037 41.021 114.037C41.4641 114.038 41.9074 114.037 42.3506 114.038C42.4568 114.038 42.4617 114.043 42.4621 114.167C42.4628 114.405 42.4626 114.643 42.4621 114.88C42.4619 115.008 42.4566 115.014 42.3452 115.014C41.4416 115.015 40.5379 115.014 39.6345 115.014C38.7339 115.014 37.833 115.014 36.9324 115.014C36.8048 115.014 36.8044 115.014 36.8044 114.864C36.8041 113.893 36.8041 112.922 36.8044 111.95C36.8041 111.801 36.8051 111.8 36.932 111.8ZM42.3341 121.023C41.4332 121.024 40.5324 121.023 39.6313 121.023C38.7332 121.023 37.8351 121.023 36.9371 121.023C36.8044 121.023 36.8039 121.023 36.8039 120.868C36.8037 120.333 36.8037 119.798 36.8041 119.263C36.8041 119.138 36.8095 119.132 36.915 119.132C38.7253 119.132 40.5358 119.132 42.3461 119.132C42.457 119.132 42.4619 119.137 42.4619 119.267C42.4624 119.802 42.4621 120.337 42.4619 120.872C42.4621 121.022 42.461 121.023 42.3341 121.023Z" fill="white"/>
<path d="M37.0684 118.099V115.983H37.7131C37.8001 115.983 37.8815 115.999 37.9574 116.032C38.0332 116.064 38.0994 116.11 38.1557 116.169C38.2119 116.228 38.2564 116.299 38.2887 116.381C38.3212 116.462 38.3374 116.553 38.3374 116.651C38.3374 116.752 38.3212 116.843 38.2887 116.924C38.2562 117.006 38.2119 117.077 38.1557 117.136C38.0994 117.195 38.0332 117.241 37.9574 117.273C37.8815 117.306 37.8001 117.322 37.7131 117.322H37.4138V118.1H37.0684V118.099ZM37.7182 116.943C37.8087 116.943 37.8769 116.914 37.9228 116.855C37.969 116.796 37.9919 116.728 37.9919 116.651C37.9919 116.613 37.9864 116.577 37.9752 116.541C37.9641 116.506 37.9472 116.475 37.924 116.448C37.901 116.422 37.8722 116.401 37.8381 116.385C37.804 116.369 37.7639 116.361 37.718 116.361H37.4136V116.943H37.7182Z" fill="white"/>
<path d="M38.584 115.983H38.9856L39.7226 117.402H39.7431L39.7226 116.994V115.983H40.0655V118.099H39.7022L38.9243 116.601H38.9039L38.9243 117.009V118.099H38.584V115.983Z" fill="white"/>
<path d="M41.2779 116.938H42.1762C42.1813 116.961 42.1855 116.99 42.189 117.023C42.1922 117.057 42.1941 117.09 42.1941 117.124C42.1941 117.26 42.1762 117.388 42.1405 117.508C42.1048 117.629 42.0484 117.736 41.9716 117.83C41.8897 117.931 41.7916 118.009 41.6774 118.064C41.563 118.119 41.4327 118.147 41.2858 118.147C41.1526 118.147 41.0274 118.119 40.9095 118.064C40.7919 118.009 40.6896 117.932 40.6026 117.833C40.5156 117.735 40.4464 117.618 40.3952 117.483C40.3439 117.348 40.3184 117.201 40.3184 117.041C40.3184 116.882 40.3439 116.734 40.3952 116.599C40.4464 116.464 40.5153 116.347 40.6026 116.249C40.6896 116.15 40.7919 116.074 40.9095 116.018C41.0271 115.963 41.1526 115.936 41.2858 115.936C41.4343 115.936 41.5668 115.965 41.6837 116.024C41.8006 116.083 41.9006 116.165 41.9844 116.269L41.7466 116.539C41.6867 116.466 41.6203 116.41 41.5468 116.372C41.4735 116.333 41.3856 116.314 41.2833 116.314C41.1995 116.314 41.1202 116.331 41.0452 116.366C40.97 116.4 40.9044 116.449 40.848 116.512C40.7919 116.575 40.7469 116.651 40.7137 116.741C40.6805 116.831 40.6638 116.931 40.6638 117.041C40.6638 117.151 40.6805 117.251 40.7137 117.341C40.7469 117.431 40.7921 117.507 40.8492 117.57C40.9062 117.633 40.9724 117.682 41.0475 117.717C41.1225 117.751 41.2027 117.768 41.2881 117.768C41.3853 117.768 41.4675 117.752 41.535 117.72C41.6022 117.687 41.6598 117.645 41.7076 117.594C41.7419 117.559 41.7714 117.514 41.796 117.459C41.8206 117.405 41.8398 117.345 41.8535 117.278H41.2777L41.2779 116.938Z" fill="white"/>
<path d="M51.9738 115.588C51.9724 115.26 51.7513 115.02 51.4659 115.015C51.2516 115.011 51.2729 115.047 51.2724 114.782C51.2717 114.488 51.2708 114.194 51.2731 113.9C51.2738 113.799 51.2471 113.715 51.1891 113.639C50.6458 112.924 50.1038 112.207 49.5607 111.492C49.5329 111.455 49.4969 111.426 49.4647 111.394C48.023 111.394 46.5816 111.394 45.14 111.394C44.9558 111.472 44.8755 111.626 44.876 111.852C44.8783 112.856 44.8769 113.86 44.8769 114.865C44.8769 115.014 44.8762 115.023 44.7493 115.012C44.402 114.985 44.1656 115.277 44.17 115.68C44.1802 116.612 44.173 117.544 44.1732 118.475C44.1735 118.899 44.3744 119.13 44.7416 119.132C44.8767 119.132 44.8767 119.132 44.8767 119.292C44.8767 119.887 44.8764 120.482 44.8769 121.076C44.8771 121.396 45.0114 121.551 45.2871 121.551C47.1461 121.551 49.0053 121.551 50.8643 121.551C51.1353 121.551 51.2715 121.395 51.272 121.083C51.2724 120.479 51.272 119.874 51.2722 119.27C51.2722 119.132 51.2727 119.133 51.3928 119.132C51.4557 119.131 51.5184 119.134 51.5805 119.116C51.8118 119.05 51.9726 118.836 51.9735 118.561C51.9772 117.571 51.9777 116.579 51.9738 115.588ZM45.3731 111.8C46.6113 111.8 47.8495 111.8 49.0875 111.8C49.2146 111.8 49.216 111.801 49.216 111.95C49.2162 112.551 49.2157 113.152 49.2162 113.754C49.2164 113.971 49.274 114.037 49.4621 114.037C49.9053 114.038 50.3486 114.037 50.7917 114.038C50.898 114.038 50.9029 114.043 50.9033 114.167C50.904 114.405 50.9038 114.643 50.9033 114.88C50.9031 115.008 50.8977 115.014 50.7864 115.014C49.8828 115.015 48.9791 115.014 48.0757 115.014C47.1751 115.014 46.2742 115.014 45.3736 115.014C45.246 115.014 45.2455 115.014 45.2455 114.864C45.2453 113.893 45.2453 112.922 45.2455 111.95C45.2455 111.801 45.2465 111.8 45.3731 111.8ZM50.7755 121.023C49.8746 121.024 48.9738 121.023 48.0727 121.023C47.1746 121.023 46.2765 121.023 45.3785 121.023C45.2458 121.023 45.2453 121.023 45.2453 120.868C45.2451 120.333 45.2451 119.798 45.2455 119.263C45.2455 119.138 45.2509 119.132 45.3564 119.132C47.1667 119.132 48.9773 119.132 50.7876 119.132C50.8984 119.132 50.9033 119.137 50.9033 119.267C50.9038 119.802 50.9035 120.337 50.9033 120.872C50.9035 121.022 50.9024 121.023 50.7755 121.023Z" fill="white"/>
<path d="M47.5868 115.982H47.9809L48.6693 118.099H48.2879L48.1369 117.593H47.4306L47.2796 118.099H46.8984L47.5868 115.982ZM48.0243 117.227L47.8605 116.698L47.794 116.441H47.7735L47.707 116.698L47.5432 117.227H48.0243Z" fill="white"/>
<path d="M49.0295 116.456C49.0005 116.456 48.9727 116.449 48.9462 116.436C48.9198 116.423 48.8968 116.406 48.8771 116.383C48.8576 116.36 48.8421 116.334 48.8312 116.305C48.82 116.275 48.8145 116.243 48.8145 116.207C48.8145 116.172 48.82 116.139 48.8312 116.11C48.8423 116.08 48.8576 116.054 48.8771 116.031C48.8966 116.009 48.9198 115.991 48.9462 115.978C48.9727 115.965 49.0003 115.959 49.0295 115.959C49.0891 115.959 49.1404 115.983 49.1831 116.031C49.2258 116.08 49.2471 116.138 49.2471 116.207C49.2471 116.276 49.2258 116.335 49.1831 116.383C49.1404 116.431 49.0894 116.456 49.0295 116.456ZM48.8634 118.099V116.651H49.1986V118.099H48.8634Z" fill="white"/>
<path d="M60.5636 115.588C60.5622 115.26 60.3411 115.02 60.0558 115.015C59.8414 115.011 59.8627 115.047 59.8623 114.782C59.8616 114.488 59.8606 114.194 59.863 113.9C59.8637 113.799 59.837 113.715 59.779 113.639C59.2356 112.924 58.6937 112.207 58.1506 111.492C58.1227 111.455 58.0868 111.426 58.0545 111.394C56.6129 111.394 55.1715 111.394 53.7298 111.394C53.5456 111.472 53.4653 111.626 53.4658 111.852C53.4681 112.856 53.4667 113.86 53.4667 114.865C53.4667 115.014 53.466 115.023 53.3391 115.012C52.9918 114.985 52.7554 115.277 52.7598 115.68C52.77 116.612 52.7628 117.544 52.7631 118.475C52.7633 118.899 52.9642 119.13 53.3315 119.132C53.4665 119.132 53.4665 119.132 53.4665 119.292C53.4665 119.887 53.4663 120.482 53.4667 121.076C53.467 121.396 53.6013 121.551 53.8769 121.551C55.7359 121.551 57.5952 121.551 59.4542 121.551C59.7252 121.551 59.8613 121.395 59.8618 121.083C59.8623 120.479 59.8618 119.874 59.862 119.27C59.862 119.132 59.8625 119.133 59.9827 119.132C60.0456 119.131 60.1082 119.134 60.1704 119.116C60.4014 119.05 60.5624 118.836 60.5634 118.561C60.5671 117.571 60.5676 116.579 60.5636 115.588ZM53.963 111.8C55.2012 111.8 56.4393 111.8 57.6773 111.8C57.8044 111.8 57.8058 111.801 57.8058 111.95C57.8061 112.551 57.8056 113.152 57.8061 113.754C57.8063 113.971 57.8638 114.037 58.052 114.037C58.4951 114.038 58.9385 114.037 59.3816 114.038C59.4878 114.038 59.4927 114.043 59.4932 114.167C59.4939 114.405 59.4936 114.643 59.4932 114.88C59.4929 115.008 59.4876 115.014 59.3762 115.014C58.4726 115.015 57.569 115.014 56.6655 115.014C55.7649 115.014 54.8641 115.014 53.9634 115.014C53.8358 115.014 53.8354 115.014 53.8354 114.864C53.8351 113.893 53.8351 112.922 53.8354 111.95C53.8351 111.801 53.8363 111.8 53.963 111.8ZM59.3651 121.023C58.4642 121.024 57.5634 121.023 56.6623 121.023C55.7642 121.023 54.8662 121.023 53.9681 121.023C53.8354 121.023 53.8349 121.023 53.8349 120.868C53.8347 120.333 53.8347 119.798 53.8351 119.263C53.8351 119.138 53.8405 119.132 53.946 119.132C55.7563 119.132 57.5669 119.132 59.3772 119.132C59.4881 119.132 59.4929 119.137 59.4929 119.267C59.4934 119.802 59.4932 120.337 59.4929 120.872C59.4934 121.022 59.4922 121.023 59.3651 121.023Z" fill="white"/>
<path d="M54.8356 118.147C54.7572 118.147 54.682 118.134 54.6103 118.108C54.5386 118.083 54.473 118.044 54.4133 117.993C54.3537 117.942 54.3018 117.879 54.2572 117.806C54.2129 117.732 54.1779 117.646 54.1523 117.547L54.4774 117.399C54.5013 117.506 54.543 117.594 54.6027 117.664C54.6623 117.734 54.7409 117.769 54.8381 117.769C54.8739 117.769 54.9084 117.763 54.9418 117.752C54.975 117.742 55.0049 117.726 55.0314 117.705C55.0578 117.685 55.0787 117.658 55.094 117.627C55.1093 117.595 55.117 117.559 55.117 117.518C55.117 117.478 55.111 117.443 55.0991 117.411C55.0873 117.38 55.0671 117.35 55.039 117.323C55.011 117.295 54.9741 117.268 54.9288 117.243C54.8836 117.217 54.8279 117.191 54.7613 117.163L54.6488 117.116C54.5994 117.096 54.5493 117.069 54.4992 117.036C54.4488 117.002 54.4034 116.962 54.3623 116.915C54.3212 116.868 54.2876 116.812 54.2612 116.748C54.2347 116.684 54.2215 116.611 54.2215 116.531C54.2215 116.448 54.2354 116.371 54.2637 116.299C54.2918 116.227 54.3319 116.164 54.3839 116.109C54.4358 116.055 54.498 116.013 54.5706 115.982C54.6433 115.952 54.7238 115.937 54.8124 115.937C54.9045 115.937 54.9841 115.951 55.0516 115.979C55.1191 116.008 55.1762 116.045 55.223 116.089C55.2699 116.133 55.3079 116.182 55.3369 116.235C55.3659 116.288 55.3873 116.339 55.401 116.386L55.0966 116.534C55.0794 116.474 55.0483 116.421 55.0033 116.374C54.9581 116.327 54.8961 116.303 54.8177 116.303C54.7426 116.303 54.6804 116.323 54.631 116.363C54.5815 116.404 54.5567 116.457 54.5567 116.522C54.5567 116.585 54.5806 116.638 54.6284 116.683C54.6762 116.727 54.7521 116.77 54.8562 116.811L54.9715 116.855C55.0448 116.885 55.1119 116.919 55.1724 116.958C55.233 116.996 55.285 117.042 55.3286 117.095C55.372 117.148 55.4054 117.209 55.4283 117.277C55.4515 117.345 55.4629 117.423 55.4629 117.512C55.4629 117.622 55.4437 117.717 55.4054 117.797C55.3671 117.877 55.3179 117.942 55.2583 117.994C55.1984 118.045 55.1312 118.083 55.056 118.109C54.9806 118.134 54.9073 118.147 54.8356 118.147Z" fill="white"/>
<path d="M55.5684 115.983H55.9419L56.3207 117.257L56.3873 117.529H56.4077L56.4794 117.257L56.8736 115.983H57.2471L56.5792 118.099H56.2159L55.5684 115.983Z" fill="white"/>
<path d="M58.2547 116.938H59.1528C59.1579 116.961 59.1621 116.99 59.1655 117.023C59.169 117.057 59.1709 117.09 59.1709 117.124C59.1709 117.26 59.1528 117.388 59.117 117.508C59.0813 117.629 59.0249 117.736 58.9482 117.83C58.8663 117.931 58.7684 118.009 58.654 118.064C58.5396 118.119 58.4092 118.147 58.2624 118.147C58.1292 118.147 58.0039 118.119 57.8863 118.064C57.7687 118.009 57.6661 117.932 57.5791 117.833C57.4921 117.735 57.423 117.618 57.3717 117.483C57.3207 117.348 57.2949 117.201 57.2949 117.041C57.2949 116.882 57.3204 116.734 57.3717 116.599C57.423 116.464 57.4919 116.347 57.5791 116.249C57.6661 116.15 57.7684 116.074 57.8863 116.018C58.0039 115.963 58.1292 115.936 58.2624 115.936C58.4108 115.936 58.5433 115.965 58.6602 116.024C58.7772 116.083 58.8774 116.165 58.9609 116.269L58.7229 116.539C58.6633 116.466 58.5967 116.41 58.5231 116.372C58.4498 116.333 58.3621 116.314 58.2596 116.314C58.1761 116.314 58.0967 116.331 58.0215 116.366C57.9466 116.4 57.8807 116.449 57.8246 116.512C57.7682 116.575 57.7234 116.651 57.6902 116.741C57.6571 116.831 57.6404 116.931 57.6404 117.041C57.6404 117.151 57.6571 117.251 57.6902 117.341C57.7234 117.431 57.7687 117.507 57.826 117.57C57.883 117.633 57.9492 117.682 58.0241 117.717C58.0993 117.751 58.1793 117.768 58.2647 117.768C58.3619 117.768 58.4442 117.752 58.5115 117.72C58.5788 117.687 58.6366 117.645 58.6844 117.594C58.7185 117.559 58.7479 117.514 58.7725 117.459C58.7974 117.405 58.8164 117.345 58.8301 117.278H58.2542V116.938H58.2547Z" fill="white"/>
<path d="M68.9738 115.588C68.9724 115.26 68.7513 115.02 68.4659 115.015C68.2515 115.011 68.2729 115.047 68.2724 114.782C68.2717 114.488 68.2708 114.194 68.2731 113.9C68.2738 113.799 68.2471 113.715 68.1891 113.639C67.6458 112.924 67.1038 112.207 66.5607 111.492C66.5329 111.455 66.4969 111.426 66.4647 111.394C65.023 111.394 63.5816 111.394 62.14 111.394C61.9558 111.472 61.8755 111.626 61.876 111.852C61.8783 112.856 61.8769 113.86 61.8769 114.865C61.8769 115.014 61.8762 115.023 61.7493 115.012C61.402 114.985 61.1656 115.277 61.17 115.68C61.1802 116.612 61.173 117.544 61.1732 118.475C61.1735 118.899 61.3744 119.13 61.7416 119.132C61.8767 119.132 61.8767 119.132 61.8767 119.292C61.8767 119.887 61.8764 120.482 61.8769 121.076C61.8771 121.396 62.0114 121.551 62.2871 121.551C64.1461 121.551 66.0053 121.551 67.8643 121.551C68.1353 121.551 68.2715 121.395 68.272 121.083C68.2724 120.479 68.272 119.874 68.2722 119.27C68.2722 119.132 68.2727 119.133 68.3928 119.132C68.4557 119.131 68.5184 119.134 68.5805 119.116C68.8116 119.05 68.9726 118.836 68.9735 118.561C68.9772 117.571 68.9779 116.579 68.9738 115.588ZM62.3734 111.8C63.6116 111.8 64.8497 111.8 66.0877 111.8C66.2148 111.8 66.2162 111.801 66.2162 111.95C66.2164 112.551 66.216 113.152 66.2164 113.754C66.2167 113.971 66.2742 114.037 66.4624 114.037C66.9055 114.038 67.3488 114.037 67.792 114.038C67.8982 114.038 67.9031 114.043 67.9036 114.167C67.9043 114.405 67.904 114.643 67.9036 114.88C67.9033 115.008 67.898 115.014 67.7866 115.014C66.883 115.015 65.9793 115.014 65.0759 115.014C64.1753 115.014 63.2745 115.014 62.3738 115.014C62.2462 115.014 62.2458 115.014 62.2458 114.864C62.2455 113.893 62.2455 112.922 62.2458 111.95C62.2455 111.801 62.2465 111.8 62.3734 111.8ZM67.7755 121.023C66.8746 121.024 65.9738 121.023 65.0727 121.023C64.1746 121.023 63.2765 121.023 62.3785 121.023C62.2458 121.023 62.2453 121.023 62.2453 120.868C62.2451 120.333 62.2451 119.798 62.2455 119.263C62.2455 119.138 62.2509 119.132 62.3564 119.132C64.1667 119.132 65.9773 119.132 67.7876 119.132C67.8985 119.132 67.9033 119.137 67.9033 119.267C67.9036 119.802 67.9036 120.337 67.9033 120.872C67.9036 121.022 67.9024 121.023 67.7755 121.023Z" fill="white"/>
<path d="M63.3279 116.362V116.852H64.0622V117.231H63.3279V117.721H64.1441V118.1H62.9824V115.983H64.1441V116.362L63.3279 116.362Z" fill="white"/>
<path d="M64.4609 118.1V115.983H65.1057C65.1927 115.983 65.2741 116 65.35 116.032C65.4258 116.065 65.4919 116.11 65.5483 116.17C65.6047 116.229 65.649 116.299 65.6815 116.381C65.714 116.463 65.73 116.553 65.73 116.652C65.73 116.752 65.7137 116.843 65.6815 116.925C65.649 117.007 65.6047 117.077 65.5483 117.136C65.4919 117.196 65.4258 117.241 65.35 117.274C65.2741 117.306 65.1927 117.323 65.1057 117.323H64.8064V118.1H64.4609V118.1ZM65.1108 116.944C65.201 116.944 65.2695 116.914 65.3154 116.855C65.3616 116.796 65.3845 116.728 65.3845 116.651C65.3845 116.614 65.379 116.577 65.3678 116.542C65.3567 116.507 65.3398 116.475 65.3166 116.449C65.2936 116.422 65.2651 116.401 65.2307 116.385C65.1966 116.37 65.1565 116.362 65.1105 116.362H64.8062V116.944H65.1108Z" fill="white"/>
<path d="M66.5368 118.147C66.4583 118.147 66.3832 118.134 66.3115 118.108C66.2398 118.083 66.1741 118.044 66.1145 117.993C66.0549 117.942 66.0027 117.879 65.9584 117.806C65.9141 117.732 65.879 117.646 65.8535 117.547L66.1785 117.399C66.2024 117.506 66.2442 117.594 66.3041 117.664C66.3637 117.734 66.4421 117.769 66.5395 117.769C66.5753 117.769 66.6098 117.763 66.6432 117.752C66.6764 117.742 66.7063 117.726 66.7328 117.705C66.7592 117.685 66.7801 117.658 66.7954 117.627C66.8107 117.595 66.8186 117.559 66.8186 117.518C66.8186 117.478 66.8126 117.443 66.8008 117.411C66.7889 117.38 66.7688 117.35 66.7407 117.323C66.7126 117.295 66.676 117.268 66.6307 117.243C66.5855 117.217 66.5296 117.191 66.463 117.163L66.3505 117.116C66.301 117.096 66.2512 117.069 66.2008 117.036C66.1505 117.002 66.1048 116.962 66.0639 116.915C66.0231 116.868 65.9892 116.812 65.9628 116.748C65.9363 116.684 65.9231 116.611 65.9231 116.531C65.9231 116.448 65.9373 116.371 65.9653 116.299C65.9934 116.227 66.0335 116.164 66.0855 116.109C66.1375 116.055 66.1999 116.013 66.2723 115.982C66.3447 115.952 66.4254 115.937 66.514 115.937C66.6061 115.937 66.6859 115.951 66.7532 115.979C66.8205 116.008 66.8778 116.045 66.9247 116.089C66.9715 116.133 67.0093 116.182 67.0386 116.235C67.0676 116.288 67.0889 116.339 67.1026 116.386L66.7982 116.534C66.7811 116.474 66.75 116.421 66.7047 116.374C66.6595 116.327 66.5975 116.303 66.5194 116.303C66.4442 116.303 66.382 116.323 66.3326 116.363C66.2832 116.404 66.2584 116.457 66.2584 116.522C66.2584 116.585 66.2823 116.638 66.33 116.683C66.3778 116.727 66.4537 116.77 66.5579 116.811L66.6729 116.855C66.7463 116.885 66.8133 116.919 66.8739 116.958C66.9344 116.996 66.9864 117.042 67.03 117.095C67.0734 117.148 67.1068 117.209 67.1297 117.277C67.1527 117.345 67.1643 117.423 67.1643 117.512C67.1643 117.622 67.1451 117.717 67.1068 117.797C67.0685 117.877 67.0193 117.942 66.9597 117.994C66.8998 118.045 66.8326 118.083 66.7574 118.109C66.6818 118.134 66.6082 118.147 66.5368 118.147Z" fill="white"/>
<path d="M74.5645 117.697L75.4934 116.361H74.6055V115.983H75.8952V116.385L74.9765 117.721H75.9054V118.099H74.5647L74.5645 117.697Z" fill="white"/>
<path d="M76.1914 115.983H76.5369V118.099H76.1914V115.983Z" fill="white"/>
<path d="M76.9062 118.1V115.983H77.551C77.638 115.983 77.7194 116 77.7953 116.032C77.8711 116.065 77.9373 116.11 77.9936 116.17C78.05 116.229 78.0943 116.299 78.1268 116.381C78.1593 116.463 78.1753 116.553 78.1753 116.652C78.1753 116.752 78.1591 116.843 78.1268 116.925C78.0943 117.007 78.05 117.077 77.9936 117.136C77.9373 117.196 77.8711 117.241 77.7953 117.274C77.7194 117.306 77.638 117.323 77.551 117.323H77.2517V118.1H76.9062V118.1ZM77.5563 116.944C77.6466 116.944 77.715 116.914 77.7609 116.855C77.8071 116.796 77.8301 116.728 77.8301 116.651C77.8301 116.614 77.8245 116.577 77.8134 116.542C77.8022 116.507 77.7853 116.475 77.7621 116.449C77.7391 116.422 77.7106 116.401 77.6763 116.385C77.6422 116.37 77.602 116.362 77.5561 116.362H77.2517V116.944H77.5563Z" fill="white"/>
</g>
<g opacity="0.61">
<path d="M69.6309 116.117H71.7344V116.718H69.6309V116.117ZM69.6309 117.153H71.7344V117.754H69.6309V117.153Z" fill="white"/>
</g>
<g opacity="0.61">
<path d="M36.3672 128.34H36.74C37.033 128.34 37.2305 128.557 37.2305 128.869C37.2305 129.18 37.033 129.398 36.74 129.398H36.3672V128.34ZM36.7347 129.301C36.978 129.301 37.1349 129.123 37.1349 128.869C37.1349 128.615 36.9778 128.437 36.7347 128.437H36.4639V129.301H36.7347Z" fill="white"/>
<path d="M38.3125 128.868C38.3125 128.56 38.5164 128.331 38.7939 128.331C39.0686 128.331 39.2739 128.559 39.2739 128.868C39.2739 129.178 39.0686 129.406 38.7939 129.406C38.5167 129.406 38.3125 129.177 38.3125 128.868ZM39.1772 128.868C39.1772 128.616 39.0136 128.43 38.7939 128.43C38.5728 128.43 38.4081 128.616 38.4081 128.868C38.4081 129.121 38.5728 129.307 38.7939 129.307C39.0138 129.307 39.1772 129.121 39.1772 128.868Z" fill="white"/>
<path d="M41.6665 128.34L41.3577 129.398H41.2556L40.9874 128.496L40.7181 129.398H40.6174L40.3086 128.34H40.4081L40.6724 129.249L40.9457 128.34H41.0359L41.3053 129.254L41.5735 128.34H41.6665Z" fill="white"/>
<path d="M43.5542 128.34V129.398H43.4744L42.8858 128.54V129.398H42.7891V128.34H42.8689L43.4588 129.198V128.34H43.5542Z" fill="white"/>
<path d="M44.7969 128.34H44.8936V129.301H45.4063V129.398H44.7969V128.34Z" fill="white"/>
<path d="M46.4141 128.868C46.4141 128.56 46.618 128.331 46.8955 128.331C47.1701 128.331 47.3755 128.559 47.3755 128.868C47.3755 129.178 47.1701 129.406 46.8955 129.406C46.6182 129.406 46.4141 129.177 46.4141 128.868ZM47.2787 128.868C47.2787 128.616 47.1152 128.43 46.8955 128.43C46.6744 128.43 46.5096 128.616 46.5096 128.868C46.5096 129.121 46.6744 129.307 46.8955 129.307C47.1152 129.307 47.2787 129.121 47.2787 128.868Z" fill="white"/>
<path d="M49.0997 129.115H48.5896L48.4796 129.397H48.3789L48.7974 128.339H48.893L49.3115 129.397H49.2095L49.0997 129.115ZM49.0645 129.024L48.8448 128.456L48.6251 129.024H49.0645Z" fill="white"/>
<path d="M50.4082 128.34H50.781C51.074 128.34 51.2715 128.557 51.2715 128.869C51.2715 129.18 51.074 129.398 50.781 129.398H50.4082V128.34ZM50.7757 129.301C51.0191 129.301 51.1759 129.123 51.1759 128.869C51.1759 128.615 51.0188 128.437 50.7757 128.437H50.5049V129.301H50.7757Z" fill="white"/>
<path d="M54.297 129.115H53.7868L53.6769 129.397H53.5762L53.9947 128.339H54.0903L54.5088 129.397H54.4067L54.297 129.115ZM54.2617 129.024L54.042 128.456L53.8223 129.024H54.2617Z" fill="white"/>
<path d="M55.6074 128.34H55.7042V129.301H56.2169V129.398H55.6074V128.34Z" fill="white"/>
<path d="M57.3223 128.34H57.419V129.301H57.9317V129.398H57.3223V128.34Z" fill="white"/>
<path d="M60.4249 128.436V128.852H60.8984V128.949H60.4249V129.398H60.3281V128.34H60.9559V128.437L60.4249 128.436Z" fill="white"/>
<path d="M62.1016 128.34H62.1983V129.398H62.1016V128.34Z" fill="white"/>
<path d="M63.4414 128.34H63.5381V129.301H64.0509V129.398H63.4414V128.34Z" fill="white"/>
<path d="M65.8057 129.301V129.398H65.1582V128.34H65.786V128.437H65.2549V128.813H65.7285V128.908H65.2549V129.301H65.8057Z" fill="white"/>
<path d="M68.3643 128.436V128.852H68.8378V128.949H68.3643V129.398H68.2676V128.34H68.8954V128.437L68.3643 128.436Z" fill="white"/>
<path d="M69.9473 128.868C69.9473 128.56 70.1512 128.331 70.4287 128.331C70.7034 128.331 70.9087 128.559 70.9087 128.868C70.9087 129.178 70.7034 129.406 70.4287 129.406C70.1512 129.406 69.9473 129.177 69.9473 128.868ZM70.8117 128.868C70.8117 128.616 70.6481 128.43 70.4284 128.43C70.2073 128.43 70.0426 128.616 70.0426 128.868C70.0426 129.121 70.2073 129.307 70.4284 129.307C70.6484 129.307 70.8117 129.121 70.8117 128.868Z" fill="white"/>
<path d="M72.6975 129.398L72.4882 129.058C72.4646 129.06 72.4411 129.062 72.4149 129.062H72.169V129.398H72.0723V128.34H72.4149C72.6479 128.34 72.7891 128.476 72.7891 128.702C72.7891 128.869 72.7133 128.985 72.5799 129.035L72.8035 129.397H72.6975V129.398ZM72.6922 128.702C72.6922 128.533 72.5954 128.437 72.4121 128.437H72.169V128.967H72.4121C72.5954 128.967 72.6922 128.869 72.6922 128.702Z" fill="white"/>
<path d="M74.9139 128.34V129.397H74.8211V128.551L74.4612 129.263H74.4155L74.0557 128.556V129.397H73.9629V128.339H74.0427L74.4403 129.124L74.834 128.339L74.9139 128.34Z" fill="white"/>
<path d="M76.7323 129.115H76.2221L76.1124 129.397H76.0117L76.4302 128.339H76.5256L76.9441 129.397H76.842L76.7323 129.115ZM76.697 129.024L76.4773 128.456L76.2576 129.024H76.697Z" fill="white"/>
<path d="M78.1733 128.437H77.8516V128.34H78.5921V128.437H78.2703V129.398H78.1736V128.437H78.1733Z" fill="white"/>
<path d="M79.5898 129.269L79.6279 129.183C79.6933 129.257 79.8098 129.312 79.93 129.312C80.1014 129.312 80.1759 129.229 80.1759 129.124C80.1759 128.834 79.6121 129.013 79.6121 128.621C79.6121 128.466 79.7168 128.331 79.9497 128.331C80.0532 128.331 80.1603 128.366 80.2336 128.425L80.2009 128.514C80.1225 128.455 80.0309 128.426 79.9497 128.426C79.7822 128.426 79.7077 128.512 79.7077 128.618C79.7077 128.909 80.2715 128.733 80.2715 129.118C80.2715 129.274 80.1643 129.407 79.93 129.407C79.7926 129.407 79.6578 129.351 79.5898 129.269Z" fill="white"/>
</g>
<path fill-rule="evenodd" clip-rule="evenodd" d="M28.9757 21.313C23.31 21.313 19.1175 27.0415 19.3054 33.2537C19.4857 39.2221 19.2516 46.952 17.5671 53.2559C15.8763 59.5775 13.0192 63.5833 8.35156 64.0976V69.9027C13.0192 70.4181 15.8763 74.422 17.5666 80.7444C19.2514 87.0483 19.4852 94.7782 19.305 100.747C19.1173 106.958 23.3095 112.687 28.9764 112.687H87.0309C92.6966 112.687 96.8881 106.959 96.7004 100.747C96.5201 94.7782 96.7542 87.0483 98.4388 80.7444C100.129 74.422 102.979 70.4165 107.647 69.9027V64.0976C102.98 63.5822 100.13 59.5783 98.4388 53.2559C96.754 46.9531 96.5201 39.2221 96.7004 33.2537C96.8881 27.0423 92.6966 21.313 87.0309 21.313H28.975H28.9757ZM75.671 77.5598C75.671 86.1141 70.1476 91.3017 60.981 91.3017H45.3771C44.4478 91.3017 43.6942 90.4313 43.6942 89.3577V44.6427C43.6942 43.569 44.4478 42.6986 45.3771 42.6986H60.8921C68.5354 42.6986 73.5517 47.4813 73.5517 54.824C73.5517 59.9779 70.1772 64.5918 65.8781 65.4001V65.6689C71.7303 66.4104 75.671 71.0927 75.671 77.5598ZM59.2795 48.8612H50.3825V63.3785H57.8761C63.6689 63.3785 66.8631 60.6838 66.8631 55.8676C66.8624 51.3536 64.1162 48.8612 59.2795 48.8612ZM50.3825 69.1387V85.1369H59.6071C65.6386 85.1369 68.8333 82.3411 68.8333 77.0873C68.8333 71.8334 65.5488 69.1379 59.2192 69.1379H50.3825V69.1387Z" fill="#7952B3"/>
</svg>
