<svg xmlns="http://www.w3.org/2000/svg" xmlns:xlink="http://www.w3.org/1999/xlink" width="500" zoomAndPan="magnify" viewBox="0 0 375 374.999991" height="500" preserveAspectRatio="xMidYMid meet" version="1.0"><defs><clipPath id="81c1313cb5"><path d="M 43 21.949219 L 334 21.949219 L 334 351.199219 L 43 351.199219 Z M 43 21.949219 " clip-rule="nonzero"/></clipPath><clipPath id="fb3210d486"><path d="M 188 21.949219 L 334 21.949219 L 334 351.199219 L 188 351.199219 Z M 188 21.949219 " clip-rule="nonzero"/></clipPath></defs><g clip-path="url(#81c1313cb5)"><path fill="#ff7816" d="M 43.019531 21.949219 L 63.46875 310.109375 L 188.480469 351.199219 L 313.492188 310.109375 L 333.941406 21.949219 Z M 43.019531 21.949219 " fill-opacity="1" fill-rule="nonzero"/></g><g clip-path="url(#fb3210d486)"><path fill="#ff4b00" d="M 333.941406 21.949219 L 313.492188 310.109375 L 188.480469 351.199219 L 188.480469 21.949219 Z M 333.941406 21.949219 " fill-opacity="1" fill-rule="nonzero"/></g><path fill="#ececf1" d="M 279.34375 109.40625 L 136.390625 109.40625 L 139.863281 157.636719 L 275.875 157.636719 L 267.578125 274.414062 L 188.480469 300.847656 L 109.382812 274.414062 L 106.683594 235.445312 L 145.265625 235.445312 L 146.035156 246.058594 L 188.480469 260.140625 L 230.921875 246.058594 L 234.394531 196.21875 L 103.789062 196.21875 L 94.914062 70.820312 L 282.046875 70.820312 Z M 279.34375 109.40625 " fill-opacity="1" fill-rule="nonzero"/><path fill="#e2e2e7" d="M 275.875 157.636719 L 267.578125 274.414062 L 188.480469 300.847656 L 188.480469 260.140625 L 230.921875 246.058594 L 234.394531 196.21875 L 188.480469 196.21875 L 188.480469 157.636719 Z M 275.875 157.636719 " fill-opacity="1" fill-rule="nonzero"/><path fill="#e2e2e7" d="M 282.046875 70.820312 L 279.34375 109.40625 L 188.480469 109.40625 L 188.480469 70.820312 Z M 282.046875 70.820312 " fill-opacity="1" fill-rule="nonzero"/></svg>