<svg xmlns="http://www.w3.org/2000/svg" xmlns:xlink="http://www.w3.org/1999/xlink" width="500" zoomAndPan="magnify" viewBox="0 0 375 374.999991" height="500" preserveAspectRatio="xMidYMid meet" version="1.0"><path fill="#131b28" d="M 164.820312 177.074219 L 162.589844 184.980469 L 164.820312 177.070312 Z M 164.820312 177.074219 " fill-opacity="1" fill-rule="nonzero"/><path fill="#131b28" d="M 230.269531 158.953125 L 220.066406 158.953125 C 219.496094 158.953125 218.9375 159.40625 218.816406 159.964844 L 211.570312 193.5625 C 211.449219 194.117188 210.886719 194.570312 210.324219 194.570312 L 203.097656 194.570312 C 195.949219 194.570312 196.777344 189.617188 198.269531 182.832031 L 198.316406 182.628906 L 199.179688 178 L 199.554688 176.09375 L 202.851562 159.964844 C 202.964844 159.40625 202.59375 158.949219 202.027344 158.949219 L 191.550781 158.949219 C 191.265625 158.960938 190.984375 159.066406 190.761719 159.246094 C 190.539062 159.429688 190.378906 159.679688 190.308594 159.960938 L 185.53125 182.390625 C 182.933594 194.257812 183.621094 205.578125 197.726562 205.933594 L 220.265625 205.933594 C 220.835938 205.933594 221.394531 205.480469 221.515625 204.921875 L 231.058594 159.953125 C 231.179688 159.394531 230.808594 158.941406 230.242188 158.941406 Z M 270.960938 194.6875 C 271.527344 194.6875 271.867188 195.140625 271.785156 195.699219 L 270.792969 200.554688 " fill-opacity="1" fill-rule="nonzero"/><path fill="#131b28" d="M 243.691406 188.4375 C 243.683594 187.902344 244.289062 186.992188 244.855469 186.992188 L 243.582031 186.96875 C 242.976562 192.757812 243.691406 188.4375 243.691406 188.4375 Z M 270.960938 194.71875 C 271.527344 194.71875 271.867188 195.171875 271.785156 195.730469 L 270.660156 201.34375 " fill-opacity="1" fill-rule="nonzero"/><path fill="#131b28" d="M 269.804688 205.414062 L 270.636719 201.347656 Z M 101.949219 188.558594 L 103.53125 181.515625 L 101.722656 189.5625 L 101.511719 190.570312 L 101.953125 188.550781 Z M 120.929688 158.835938 L 109.722656 158.835938 C 109.433594 158.847656 109.152344 158.953125 108.925781 159.132812 C 108.699219 159.3125 108.539062 159.5625 108.460938 159.84375 L 106.335938 169.222656 C 106.300781 169.34375 106.296875 169.472656 106.320312 169.59375 C 106.34375 169.71875 106.398438 169.835938 106.476562 169.933594 C 106.554688 170.035156 106.65625 170.113281 106.773438 170.164062 C 106.886719 170.214844 107.015625 170.238281 107.140625 170.230469 L 118.4375 170.230469 C 119.003906 170.230469 119.566406 169.773438 119.6875 169.222656 L 121.738281 159.824219 C 121.859375 159.269531 121.496094 158.816406 120.925781 158.816406 Z M 85.953125 224.96875 L 95.199219 225.042969 C 92.46875 225.042969 87.960938 224.988281 85.953125 224.964844 Z M 85.953125 224.96875 " fill-opacity="1" fill-rule="nonzero"/><path fill="#131b28" d="M 117.710938 173.460938 L 106.441406 173.460938 C 106.152344 173.472656 105.875 173.578125 105.648438 173.757812 C 105.421875 173.941406 105.257812 174.1875 105.183594 174.46875 L 102.011719 188.554688 L 101.574219 190.574219 L 98.554688 204.953125 C 98.402344 205.625 98.222656 206.285156 98.011719 206.941406 C 98.011719 206.941406 95.898438 213.230469 92.351562 213.164062 L 88.835938 213.097656 C 88.546875 213.105469 88.269531 213.203125 88.042969 213.382812 C 87.8125 213.558594 87.648438 213.804688 87.570312 214.082031 L 85.226562 223.949219 C 85.1875 224.070312 85.179688 224.199219 85.203125 224.324219 C 85.226562 224.445312 85.277344 224.5625 85.355469 224.664062 C 85.433594 224.761719 85.535156 224.84375 85.648438 224.894531 C 85.761719 224.949219 85.886719 224.972656 86.015625 224.964844 L 95.261719 225.042969 C 104.125 225.042969 108.792969 220.121094 111.789062 205.964844 L 118.582031 174.503906 C 118.703125 173.949219 118.335938 173.496094 117.769531 173.496094 Z M 278.1875 205.941406 C 277.621094 205.941406 277.28125 205.488281 277.371094 204.929688 L 285.875 165.042969 " fill-opacity="1" fill-rule="nonzero"/><path fill="#131b28" d="M 277.496094 205.441406 C 277.429688 205.164062 277.46875 204.480469 277.589844 203.929688 L 281.621094 184.992188 L 277.371094 204.933594 C 277.25 205.492188 277.617188 205.945312 278.1875 205.945312 L 279.21875 205.945312 C 278.652344 205.945312 277.5625 205.71875 277.496094 205.441406 Z M 289.332031 205.71875 C 289.023438 205.839844 288.304688 205.945312 287.738281 205.945312 L 288.769531 205.945312 C 289.058594 205.933594 289.335938 205.828125 289.558594 205.648438 C 289.78125 205.464844 289.9375 205.214844 290.007812 204.933594 L 290.210938 203.921875 C 290.101562 204.480469 289.609375 205.59375 289.308594 205.71875 Z M 325.253906 167.71875 L 325.722656 169.65625 C 325.851562 170.207031 325.492188 170.660156 324.929688 170.664062 " fill-opacity="1" fill-rule="nonzero"/><path fill="#131b28" d="M 293.246094 188.910156 L 293.660156 186.902344 L 295.28125 179.296875 L 293.445312 187.910156 Z M 286.015625 164.390625 L 285.660156 166.054688 L 281.628906 184.992188 L 285.878906 165.046875 L 286.015625 164.394531 Z M 286.015625 164.390625 " fill-opacity="1" fill-rule="nonzero"/><path fill="#131b28" d="M 325.722656 169.652344 L 325.253906 167.71875 L 324.558594 164.691406 C 323.640625 161.125 320.949219 159.058594 315.097656 159.058594 L 288.171875 159.039062 C 287.882812 159.050781 287.605469 159.152344 287.378906 159.335938 C 287.15625 159.519531 286.996094 159.769531 286.929688 160.050781 L 286.511719 162.023438 L 285.90625 165.011719 L 277.625 203.890625 C 277.503906 204.449219 277.464844 205.101562 277.535156 205.402344 C 277.601562 205.707031 278.691406 205.910156 279.253906 205.910156 L 287.765625 205.910156 C 288.335938 205.910156 289.050781 205.804688 289.359375 205.683594 C 289.671875 205.558594 290.128906 204.472656 290.265625 203.886719 L 293.496094 187.871094 L 296.953125 171.644531 C 297.074219 171.089844 297.632812 170.640625 298.195312 170.636719 L 324.980469 170.625 C 325.546875 170.625 325.90625 170.171875 325.777344 169.617188 Z M 360.203125 152.128906 L 358.140625 152.136719 L 349.566406 152.136719 C 349.253906 152.15625 348.949219 152.242188 348.667969 152.386719 C 348.390625 152.535156 348.148438 152.738281 347.953125 152.988281 L 328.996094 180.820312 C 328.675781 181.289062 328.3125 181.21875 328.183594 180.667969 L 326.789062 174.535156 C 326.710938 174.257812 326.550781 174.007812 326.324219 173.824219 C 326.097656 173.644531 325.820312 173.539062 325.527344 173.527344 L 313.34375 173.527344 C 312.773438 173.527344 312.4375 173.972656 312.59375 174.519531 L 318.027344 193.695312 C 318.183594 194.238281 318.191406 195.136719 318.058594 195.691406 L 315.640625 204.96875 C 315.601562 205.085938 315.589844 205.214844 315.613281 205.339844 C 315.628906 205.464844 315.679688 205.578125 315.761719 205.679688 C 315.835938 205.777344 315.9375 205.859375 316.054688 205.910156 C 316.167969 205.957031 316.292969 205.980469 316.417969 205.96875 L 328.492188 205.96875 C 329.0625 205.96875 329.640625 205.515625 329.777344 204.972656 L 332.195312 195.695312 C 332.382812 195.039062 332.679688 194.421875 333.070312 193.867188 L 363.847656 152.933594 C 364.191406 152.476562 364.003906 152.109375 363.4375 152.113281 L 360.207031 152.136719 Z M 263.371094 176.140625 C 263.300781 176.746094 262.734375 177.199219 262.164062 177.199219 L 246.710938 177.199219 C 246.175781 177.199219 245.902344 176.835938 245.984375 176.382812 L 245.996094 176.300781 L 246.066406 176.035156 C 247.574219 172.105469 250.550781 169.523438 256.195312 169.523438 C 262.558594 169.523438 263.796875 172.640625 263.367188 176.140625 Z M 258.84375 158.269531 C 239.011719 158.269531 234.3125 170.332031 231.675781 182.507812 C 229.039062 194.917969 229.265625 206.527344 249.789062 206.527344 L 253.042969 206.527344 L 255.546875 206.515625 L 268.605469 206.4375 C 268.894531 206.425781 269.167969 206.320312 269.390625 206.136719 C 269.609375 205.953125 269.765625 205.703125 269.835938 205.425781 L 271.820312 195.707031 C 271.933594 195.152344 271.5625 194.699219 270.996094 194.699219 L 252.546875 194.699219 C 245.210938 194.699219 243.027344 192.742188 243.832031 187 L 273.324219 187 C 273.808594 186.992188 274.246094 186.695312 274.417969 186.238281 C 274.449219 186.15625 274.480469 186.066406 274.492188 185.980469 C 278.867188 169.433594 277.613281 158.28125 258.855469 158.28125 Z M 165.09375 176.078125 L 164.816406 177.066406 L 162.589844 184.980469 L 160.359375 192.886719 C 160.269531 193.164062 160.09375 193.410156 159.859375 193.585938 C 159.625 193.761719 159.34375 193.867188 159.050781 193.878906 L 147.261719 193.878906 C 138.320312 193.878906 136.144531 186.871094 138.320312 176.53125 C 140.496094 165.960938 144.765625 159.386719 153.566406 158.722656 C 165.59375 157.8125 167.996094 166.289062 165.097656 176.074219 Z M 173.179688 193.273438 C 173.179688 193.273438 178.734375 179.75 180 171.9375 C 181.722656 161.480469 176.5 146.316406 156.320312 146.316406 C 136.253906 146.316406 127.539062 160.792969 124.21875 176.566406 C 120.898438 192.417969 125.25 206.320312 145.199219 206.210938 L 175.644531 206.097656 C 175.9375 206.085938 176.21875 205.980469 176.449219 205.800781 C 176.679688 205.621094 176.847656 205.375 176.933594 205.09375 L 179.5 195.300781 C 179.539062 195.179688 179.550781 195.054688 179.53125 194.929688 C 179.511719 194.804688 179.460938 194.6875 179.386719 194.589844 C 179.308594 194.488281 179.210938 194.410156 179.09375 194.359375 C 178.980469 194.308594 178.855469 194.285156 178.730469 194.296875 L 173.816406 194.296875 C 173.335938 194.292969 173.0625 193.980469 173.117188 193.570312 C 173.128906 193.496094 173.148438 193.417969 173.179688 193.339844 Z M 173.179688 193.273438 " fill-opacity="1" fill-rule="nonzero"/><path fill="#131b28" d="M 272.503906 184.222656 C 272.503906 184.597656 272.203125 184.902344 271.828125 184.902344 C 271.453125 184.902344 271.152344 184.597656 271.152344 184.222656 C 271.152344 183.847656 271.453125 183.546875 271.828125 183.546875 C 272.203125 183.546875 272.503906 183.847656 272.503906 184.222656 Z M 272.503906 184.222656 " fill-opacity="1" fill-rule="nonzero"/><path fill="#0868ac" d="M 19.976562 166.636719 C 14.4375 174.617188 15.125 185 19.355469 193.476562 L 19.667969 194.082031 L 19.867188 194.460938 L 19.988281 194.683594 L 20.207031 195.078125 L 20.613281 195.773438 L 20.84375 196.152344 L 21.308594 196.886719 L 21.507812 197.195312 L 22.1875 198.179688 L 22.320312 198.363281 L 22.941406 199.1875 L 23.171875 199.484375 L 23.777344 200.1875 L 23.992188 200.453125 L 24.789062 201.367188 L 24.839844 201.417969 L 25.648438 202.273438 L 25.90625 202.535156 L 26.554688 203.140625 L 26.820312 203.390625 L 27.703125 204.199219 L 27.871094 204.34375 L 28.679688 205.023438 L 28.980469 205.289062 L 29.652344 205.816406 L 30.011719 206.117188 L 30.769531 206.664062 L 31.117188 206.910156 L 31.847656 207.394531 L 32.164062 207.605469 L 33.3125 208.308594 L 33.628906 208.488281 L 34.488281 208.972656 L 34.964844 209.214844 L 35.582031 209.535156 L 35.722656 209.605469 L 35.976562 209.726562 L 36.949219 210.179688 L 37.15625 210.269531 L 38.292969 210.742188 L 38.570312 210.851562 L 39.644531 211.25 L 39.777344 211.300781 L 40.972656 211.691406 L 41.265625 211.777344 L 42.472656 212.128906 C 69.261719 217.027344 77.046875 195.992188 77.046875 195.992188 C 70.507812 204.523438 58.933594 206.777344 47.914062 204.273438 C 47.496094 204.183594 47.09375 204.046875 46.6875 203.925781 L 46.386719 203.835938 C 45.992188 203.714844 45.601562 203.585938 45.210938 203.453125 L 45.046875 203.390625 C 44.695312 203.269531 44.351562 203.136719 44.003906 203.003906 L 43.710938 202.890625 C 43.335938 202.742188 42.957031 202.585938 42.585938 202.421875 L 42.363281 202.320312 L 41.414062 201.878906 L 41.113281 201.746094 C 40.867188 201.625 40.625 201.5 40.378906 201.371094 L 39.890625 201.113281 C 39.59375 200.957031 39.300781 200.789062 39.011719 200.621094 L 38.714844 200.453125 C 38.332031 200.226562 37.949219 199.992188 37.570312 199.753906 C 37.464844 199.6875 37.363281 199.613281 37.261719 199.546875 L 36.445312 199.003906 C 36.355469 198.941406 36.269531 198.882812 36.183594 198.820312 L 35.414062 198.261719 L 35.074219 198.003906 L 34.378906 197.460938 L 34.066406 197.210938 L 33.199219 196.480469 C 33.171875 196.449219 33.140625 196.429688 33.109375 196.402344 C 32.800781 196.097656 32.5 195.851562 32.199219 195.574219 L 31.941406 195.324219 L 31.285156 194.683594 L 31.03125 194.425781 C 30.757812 194.148438 30.488281 193.863281 30.226562 193.578125 C 29.9375 193.257812 29.652344 192.933594 29.371094 192.609375 L 29.160156 192.355469 L 28.574219 191.628906 L 28.363281 191.324219 L 27.6875 190.425781 C 21.613281 182.097656 19.421875 170.59375 24.332031 161.140625 M 37.199219 159.917969 C 33.195312 165.664062 33.414062 173.429688 36.535156 179.539062 C 37.058594 180.5625 37.652344 181.554688 38.308594 182.5 C 38.914062 183.363281 39.578125 184.390625 40.371094 185.082031 L 41.269531 185.988281 L 41.503906 186.222656 L 42.421875 187.078125 L 42.46875 187.117188 L 43.539062 188.007812 L 43.78125 188.199219 L 44.90625 189.015625 L 45.6875 189.539062 L 46.519531 190.050781 L 46.640625 190.121094 L 47.375 190.53125 L 47.640625 190.667969 L 48.152344 190.933594 L 48.230469 190.972656 L 49.304688 191.472656 L 49.539062 191.570312 L 50.445312 191.925781 L 50.820312 192.066406 L 51.628906 192.347656 L 51.988281 192.46875 C 52.375 192.589844 52.757812 192.773438 53.15625 192.808594 C 73.84375 196.242188 78.621094 180.285156 78.621094 180.285156 C 74.316406 186.496094 65.976562 189.460938 57.082031 187.152344 L 55.910156 186.8125 L 55.558594 186.699219 L 54.742188 186.414062 L 54.371094 186.273438 L 53.488281 185.917969 L 53.25 185.816406 L 52.171875 185.316406 L 51.628906 185.011719 L 51.316406 184.851562 L 50.472656 184.367188 L 49.640625 183.859375 L 48.855469 183.335938 L 47.738281 182.519531 L 47.488281 182.320312 C 43.5625 179.242188 40.507812 175.058594 39.035156 170.257812 C 37.527344 165.304688 37.828125 159.746094 40.492188 155.238281 M 51.632812 154.894531 C 49.273438 158.375 49.039062 162.699219 50.679688 166.550781 C 52.40625 170.632812 55.949219 173.8125 60.082031 175.324219 L 60.597656 175.503906 L 60.824219 175.578125 L 61.558594 175.789062 C 72.980469 177.996094 76.050781 169.914062 76.902344 168.726562 C 74.1875 172.640625 69.660156 173.582031 64.03125 172.21875 C 63.574219 172.097656 63.121094 171.960938 62.671875 171.800781 C 62.125 171.609375 61.589844 171.382812 61.0625 171.132812 C 60.070312 170.652344 59.125 170.078125 58.246094 169.410156 C 53.234375 165.597656 50.09375 158.339844 53.394531 152.425781 " fill-opacity="1" fill-rule="nonzero"/></svg>