<svg width="91" height="43" viewBox="0 0 91 43" fill="none" xmlns="http://www.w3.org/2000/svg">
<path d="M21.472 11.2148H38.6356V12.2834H23.0457V20.3251H37.7057V21.3936H23.0457V30.2227H38.8141V31.2913H21.472C21.472 31.2916 21.472 11.2148 21.472 11.2148ZM40.1729 11.2148H41.9967L50.0779 20.0439L58.3377 11.2148L69.5723 0L51.1147 20.972L60.626 31.2916H58.7306L50.0777 21.9L41.389 31.2916H39.5294L49.1121 20.972L40.1733 11.2148H40.1729ZM61.3059 12.2834V11.2148H80.8646V12.2834H71.8542V31.291H70.2805V12.2835H61.3065L61.3059 12.2834ZM0 11.2148H1.96681L29.0854 43L17.8785 31.2916L1.64467 12.7332L1.57329 31.2914H0V11.2148ZM80.7067 29.9003C80.3843 29.9003 80.1435 29.7053 80.1435 29.4534C80.1435 29.201 80.3843 29.0059 80.7061 29.0059C81.0315 29.0059 81.2687 29.201 81.2687 29.4534C81.2687 29.7053 81.0315 29.9003 80.7061 29.9003H80.7067ZM82.2521 28.7238H83.0943C83.1061 29.0812 83.4393 29.3209 83.9287 29.3209C84.4759 29.3209 84.7857 29.0633 84.7857 28.5798V25.519H85.6427V28.5827C85.6427 29.4534 85.0001 29.9547 83.936 29.9547C82.9378 29.9547 82.2527 29.4684 82.2527 28.7238H82.2521ZM86.7639 28.6853H87.6136C87.6864 29.096 88.199 29.3571 88.9377 29.3571C89.6261 29.3571 90.1313 29.0779 90.1313 28.694C90.1313 28.3641 89.8103 28.1656 89.0789 28.0308L88.3673 27.896C87.3691 27.713 86.9131 27.3344 86.9131 26.6983C86.9131 25.9269 87.7165 25.4135 88.9218 25.4135C90.0433 25.4135 90.8627 25.9269 90.912 26.6559H90.0777C89.9976 26.2572 89.5539 26.0078 88.9106 26.0078C88.2328 26.0078 87.7818 26.263 87.7818 26.6531C87.7818 26.9622 88.0726 27.1394 88.7923 27.2714L89.4004 27.3883C90.5329 27.5954 91 27.9556 91 28.6067C91 29.435 90.1804 29.9547 88.8724 29.9547C87.6482 29.9547 86.8249 29.4592 86.7639 28.6848V28.6853Z" fill="black"/>
</svg>
