<svg xmlns="http://www.w3.org/2000/svg" xmlns:xlink="http://www.w3.org/1999/xlink" width="500" zoomAndPan="magnify" viewBox="0 0 375 374.999991" height="500" preserveAspectRatio="xMidYMid meet" version="1.0"><defs><clipPath id="89d98a3e35"><path d="M 37.5 90.726562 L 337.5 90.726562 L 337.5 271.476562 L 37.5 271.476562 Z M 37.5 90.726562 " clip-rule="nonzero"/></clipPath></defs><g clip-path="url(#89d98a3e35)"><path fill="#000000" d="M 108.3125 137.863281 L 164.878906 137.863281 L 164.878906 142.355469 L 113.496094 142.355469 L 113.496094 176.15625 L 161.816406 176.15625 L 161.816406 180.648438 L 113.496094 180.648438 L 113.496094 217.757812 L 165.464844 217.757812 L 165.464844 222.253906 L 108.3125 222.253906 Z M 169.945312 137.863281 L 175.953125 137.863281 L 202.589844 174.972656 L 229.808594 137.863281 L 266.832031 90.726562 L 206.003906 178.875 L 237.351562 222.253906 L 231.101562 222.253906 L 202.589844 182.773438 L 173.953125 222.253906 L 167.824219 222.253906 L 199.402344 178.875 Z M 239.589844 142.355469 L 239.589844 137.863281 L 304.050781 137.863281 L 304.050781 142.355469 L 274.355469 142.355469 L 274.355469 222.25 L 269.171875 222.25 L 269.171875 142.355469 Z M 37.546875 137.863281 L 44.03125 137.863281 L 133.402344 271.464844 L 96.472656 222.253906 L 42.972656 144.25 L 42.738281 222.253906 L 37.550781 222.253906 L 37.550781 137.863281 Z M 303.523438 216.410156 C 302.46875 216.410156 301.675781 215.582031 301.675781 214.523438 C 301.675781 213.464844 302.46875 212.644531 303.523438 212.644531 C 304.597656 212.644531 305.382812 213.464844 305.382812 214.523438 C 305.382812 215.582031 304.597656 216.410156 303.523438 216.410156 Z M 308.621094 211.457031 L 311.398438 211.457031 C 311.433594 212.960938 312.535156 213.96875 314.144531 213.96875 C 315.949219 213.96875 316.96875 212.886719 316.96875 210.855469 L 316.96875 197.988281 L 319.796875 197.988281 L 319.796875 210.867188 C 319.796875 214.523438 317.675781 216.628906 314.171875 216.628906 C 310.882812 216.628906 308.621094 214.589844 308.621094 211.457031 Z M 323.492188 211.292969 L 326.292969 211.292969 C 326.527344 213.027344 328.21875 214.121094 330.65625 214.121094 C 332.921875 214.121094 334.585938 212.949219 334.585938 211.335938 C 334.585938 209.949219 333.527344 209.113281 331.121094 208.542969 L 328.777344 207.976562 C 325.484375 207.210938 323.984375 205.617188 323.984375 202.945312 C 323.984375 199.703125 326.632812 197.550781 330.605469 197.550781 C 334.300781 197.550781 336.996094 199.703125 337.160156 202.769531 L 334.410156 202.769531 C 334.148438 201.089844 332.683594 200.042969 330.5625 200.042969 C 328.332031 200.042969 326.84375 201.117188 326.84375 202.757812 C 326.84375 204.054688 327.804688 204.800781 330.175781 205.355469 L 332.179688 205.847656 C 335.910156 206.71875 337.453125 208.234375 337.453125 210.964844 C 337.453125 214.449219 334.75 216.628906 330.441406 216.628906 C 326.402344 216.628906 323.691406 214.554688 323.492188 211.292969 Z M 323.492188 211.292969 " fill-opacity="1" fill-rule="nonzero"/></g></svg>