<svg width="120" height="60" viewBox="0 0 120 60" fill="none" xmlns="http://www.w3.org/2000/svg">
<mask id="mask0_271_3299" style="mask-type:luminance" maskUnits="userSpaceOnUse" x="13" y="8" width="92" height="48">
<path d="M13.6367 31.9835C13.6367 45.0466 34.0471 55.6367 59.2236 55.6367C84.4001 55.6367 104.81 45.0466 104.81 31.9835C104.81 18.9204 84.4001 8.33032 59.2236 8.33032C34.0471 8.33032 13.6367 18.9206 13.6367 31.9835Z" fill="white"/>
</mask>
<g mask="url(#mask0_271_3299)">
<path d="M13.6367 31.9835C13.6367 45.0466 34.0471 55.6367 59.2236 55.6367C84.4001 55.6367 104.81 45.0466 104.81 31.9835C104.81 18.9204 84.4001 8.33032 59.2236 8.33032C34.0471 8.33032 13.6367 18.9206 13.6367 31.9835Z" fill="url(#paint0_radial_271_3299)"/>
</g>
<mask id="mask1_271_3299" style="mask-type:luminance" maskUnits="userSpaceOnUse" x="11" y="5" width="96" height="54">
<path d="M11.7363 5.63731H106.709V58.3301H11.7363V5.63731Z" fill="white"/>
</mask>
<g mask="url(#mask1_271_3299)">
<path d="M59.2221 53.8804C83.4154 53.8804 103.028 44.0769 103.028 31.9836C103.028 19.8903 83.4154 10.0868 59.2221 10.0868C35.0288 10.0868 15.416 19.8903 15.416 31.9836C15.416 44.0769 35.0288 53.8804 59.2221 53.8804Z" fill="#777BB3"/>
</g>
<mask id="mask2_271_3299" style="mask-type:luminance" maskUnits="userSpaceOnUse" x="11" y="5" width="96" height="54">
<path d="M11.7363 5.63731H106.709V58.3301H11.7363V5.63731Z" fill="white"/>
</mask>
<g mask="url(#mask2_271_3299)">
<path d="M38.4024 34.6986C40.3917 34.6986 41.8768 34.3368 42.8164 33.6236C43.746 32.9178 44.388 31.6945 44.7245 29.9883C45.0383 28.3936 44.9188 27.28 44.3694 26.6791C43.8076 26.0653 42.5931 25.754 40.7596 25.754H37.5807L35.8181 34.6988H38.4023L38.4024 34.6986ZM28.0043 45.717C27.8567 45.717 27.7165 45.6519 27.6227 45.5394C27.5763 45.4838 27.543 45.4189 27.525 45.3492C27.507 45.2794 27.5049 45.2067 27.5188 45.136L32.1896 21.4324C32.2116 21.3213 32.272 21.2211 32.3606 21.1491C32.4492 21.0771 32.5604 21.0377 32.6752 21.0377H42.742C45.9058 21.0377 48.2606 21.8834 49.7408 23.5564C51.2288 25.2364 51.6884 27.5851 51.1065 30.5366C50.8697 31.7391 50.4625 32.8557 49.8963 33.8559C49.3291 34.8569 48.5798 35.7831 47.6687 36.6092C46.5778 37.6163 45.3432 38.3465 44.0024 38.7762C42.6828 39.2001 40.9883 39.4153 38.9655 39.4153H34.8893L33.7252 45.3224C33.7033 45.4336 33.6429 45.5337 33.5543 45.6058C33.4658 45.6778 33.3546 45.7172 33.2398 45.7173H28.0043V45.717Z" fill="black"/>
<path d="M37.9888 26.2418H40.7601C42.9728 26.2418 43.7417 26.7208 44.0029 27.0062C44.4362 27.4801 44.518 28.4793 44.2395 29.8957C43.9265 31.4814 43.3465 32.6056 42.5151 33.237C41.664 33.8833 40.2803 34.2108 38.403 34.2108H36.4184L37.9888 26.2418ZM42.7423 20.5497H32.6756C32.446 20.5497 32.2235 20.6285 32.0464 20.7726C31.8692 20.9167 31.7484 21.117 31.7046 21.3393L27.0338 45.0432C27.006 45.1845 27.0102 45.3301 27.0461 45.4695C27.082 45.609 27.1488 45.7389 27.2416 45.85C27.3344 45.961 27.4509 46.0504 27.5828 46.1118C27.7148 46.1732 27.8589 46.2051 28.0048 46.2051H33.2398C33.4694 46.2051 33.6919 46.1263 33.8691 45.9823C34.0463 45.8382 34.1671 45.6378 34.211 45.4155L35.2972 39.9031H38.9659C41.0404 39.9031 42.7869 39.68 44.1564 39.24C45.5645 38.7887 46.8605 38.0235 48.0071 36.9658C48.9555 36.1051 49.7383 35.1391 50.3286 34.0942C50.9189 33.0493 51.3459 31.8834 51.5929 30.6298C52.2055 27.5229 51.7079 25.0349 50.1139 23.2356C48.5357 21.4535 46.0555 20.5499 42.7427 20.5499M35.2186 35.1868H38.403C40.5135 35.1868 42.0858 34.7948 43.1186 34.0103C44.1514 33.2257 44.8486 31.9164 45.2106 30.0816C45.5569 28.3199 45.3993 27.0768 44.7374 26.3524C44.0756 25.6281 42.7489 25.266 40.7604 25.266H37.1736L35.2187 35.1866M42.7428 21.5255C45.7712 21.5255 47.9805 22.3094 49.3692 23.8772C50.7578 25.4449 51.1758 27.6336 50.6218 30.4434C50.3937 31.6009 50.0081 32.6591 49.4651 33.618C48.9222 34.5769 48.2117 35.4546 47.3345 36.25C46.2891 37.2149 45.1279 37.9024 43.85 38.3122C42.5722 38.7229 40.9448 38.9273 38.9662 38.9273H34.482L33.2405 45.2293H28.0054L32.6756 21.5255H42.7425" fill="white"/>
<path d="M63.1092 39.4149C62.9615 39.4149 62.8215 39.3498 62.7277 39.2373C62.6339 39.1247 62.5955 38.9771 62.6238 38.834L64.6898 28.3458C64.8863 27.3484 64.8379 26.6325 64.5534 26.33C64.3793 26.1451 63.8563 25.8349 62.3099 25.8349H58.5667L55.969 39.0198C55.9471 39.131 55.8867 39.2312 55.7981 39.3033C55.7095 39.3753 55.5982 39.4147 55.4834 39.4147H50.2896C50.2166 39.4147 50.1446 39.3988 50.0786 39.3681C50.0126 39.3374 49.9543 39.2927 49.9079 39.2372C49.8615 39.1817 49.8281 39.1167 49.8102 39.047C49.7922 38.9772 49.7901 38.9044 49.804 38.8338L54.4748 15.1302C54.4967 15.019 54.5572 14.9189 54.6458 14.8469C54.7344 14.7748 54.8456 14.7355 54.9604 14.7355H60.1542C60.2272 14.7355 60.2992 14.7514 60.3652 14.7821C60.4312 14.8128 60.4895 14.8575 60.5359 14.913C60.5823 14.9685 60.6157 15.0335 60.6336 15.1032C60.6516 15.173 60.6537 15.2458 60.6398 15.3164L59.5126 21.0375H63.5394C66.6071 21.0375 68.6871 21.5709 69.8989 22.6683C71.1356 23.7879 71.5193 25.5778 71.0444 27.9897L68.8712 39.0202C68.8493 39.1313 68.7889 39.2315 68.7003 39.3036C68.6117 39.3756 68.5005 39.415 68.3857 39.415H63.1094L63.1092 39.4149Z" fill="black"/>
<path d="M60.1547 14.2478H54.9609C54.7313 14.2478 54.5088 14.3266 54.3316 14.4706C54.1544 14.6147 54.0336 14.815 53.9897 15.0374L49.3189 38.741C49.2911 38.8823 49.2953 39.0279 49.3312 39.1673C49.3672 39.3068 49.4339 39.4367 49.5268 39.5478C49.6196 39.6588 49.7361 39.7482 49.8681 39.8096C50.0001 39.871 50.1442 39.9028 50.2901 39.9028H55.4839C55.7135 39.9028 55.936 39.8241 56.1132 39.68C56.2904 39.5359 56.4112 39.3356 56.4551 39.1133L58.975 26.3231H62.3106C63.8544 26.3231 64.1784 26.6483 64.1914 26.6623C64.285 26.7615 64.4082 27.2218 64.2049 28.2529L62.1389 38.741C62.1111 38.8823 62.1153 39.0279 62.1512 39.1673C62.1872 39.3068 62.2539 39.4367 62.3467 39.5478C62.4396 39.6588 62.5561 39.7482 62.6881 39.8096C62.8201 39.871 62.9642 39.9028 63.1101 39.9028H68.3863C68.616 39.9028 68.8384 39.8241 69.0156 39.68C69.1928 39.5359 69.3137 39.3356 69.3575 39.1133L71.5306 28.0827C72.0406 25.4936 71.6044 23.5512 70.2347 22.3093C68.9275 21.1253 66.7378 20.5496 63.5404 20.5496H60.1135L61.1264 15.4096C61.1542 15.2684 61.15 15.1227 61.1141 14.9832C61.0782 14.8437 61.0114 14.7138 60.9186 14.6027C60.8258 14.4917 60.7092 14.4022 60.5772 14.3409C60.4452 14.2795 60.3011 14.2476 60.1552 14.2476M60.1552 15.2234L58.9136 21.5254H63.5406C66.4519 21.5254 68.46 22.0266 69.5654 23.0278C70.6708 24.029 71.0015 25.6527 70.56 27.8967L68.3868 38.927H63.1106L65.1766 28.4392C65.4117 27.2462 65.3253 26.4323 64.917 25.9984C64.5088 25.5645 63.6398 25.3473 62.3111 25.3473H58.1596L55.4842 38.927H50.2904L54.9612 15.2234H60.155" fill="white"/>
<path d="M79.2636 34.6986C81.2529 34.6986 82.738 34.3368 83.6775 33.6236C84.6071 32.9178 85.2492 31.6948 85.5858 29.9883C85.8996 28.3936 85.7801 27.28 85.2305 26.6791C84.6688 26.0653 83.4542 25.754 81.6207 25.754H78.4418L76.6792 34.6988H79.2634L79.2636 34.6986ZM68.8657 45.717C68.7181 45.717 68.578 45.6519 68.4842 45.5394C68.4378 45.4839 68.4044 45.4189 68.3864 45.3492C68.3684 45.2795 68.3663 45.2067 68.3801 45.136L73.0509 21.4324C73.0729 21.3212 73.1333 21.2211 73.222 21.149C73.3106 21.077 73.4219 21.0377 73.5367 21.0377H83.6033C86.7674 21.0377 89.1219 21.8834 90.6022 23.5564C92.0903 25.2364 92.5495 27.5848 91.968 30.5366C91.7309 31.7391 91.3238 32.8557 90.7574 33.8559C90.1902 34.8569 89.441 35.7831 88.5298 36.6092C87.439 37.6163 86.2043 38.3465 84.8635 38.7762C83.5439 39.2001 81.8494 39.4153 79.8266 39.4153H75.7499L74.5863 45.3224C74.5644 45.4336 74.504 45.5338 74.4154 45.6059C74.3267 45.6779 74.2154 45.7173 74.1006 45.7173H68.8655L68.8657 45.717Z" fill="black"/>
<path d="M78.8499 26.2418H81.6213C83.834 26.2418 84.6029 26.7208 84.864 27.0062C85.2977 27.4801 85.3793 28.4793 85.1006 29.8955C84.7877 31.4812 84.2075 32.6056 83.3763 33.237C82.5252 33.8833 81.1415 34.2108 79.2641 34.2108H77.2801L78.8499 26.2418ZM83.6035 20.5497H73.5367C73.3071 20.5497 73.0847 20.6285 72.9075 20.7726C72.7304 20.9167 72.6096 21.117 72.5657 21.3393L67.8951 45.0432C67.8673 45.1845 67.8715 45.3301 67.9074 45.4695C67.9433 45.609 68.0101 45.7389 68.1029 45.85C68.1957 45.961 68.3122 46.0504 68.4442 46.1118C68.5761 46.1732 68.7202 46.2051 68.8661 46.2051H74.1011C74.3308 46.2051 74.5532 46.1263 74.7304 45.9823C74.9076 45.8382 75.0285 45.6378 75.0723 45.4155L76.1584 39.9031H79.827C81.9016 39.9031 83.648 39.68 85.0175 39.24C86.4256 38.7887 87.7216 38.0235 88.8685 36.9655C89.817 36.1051 90.5978 35.1391 91.1898 34.0942C91.7817 33.0493 92.2071 31.8834 92.4541 30.6298C93.0666 27.5227 92.569 25.0348 90.9751 23.2354C89.3968 21.4535 86.9168 20.5499 83.6038 20.5499M76.0799 35.1868H79.2641C81.3746 35.1868 82.9469 34.7948 83.9798 34.0103C85.0126 33.2257 85.7097 31.9164 86.0718 30.0816C86.4184 28.3199 86.2606 27.0768 85.5986 26.3524C84.9366 25.6281 83.6101 25.266 81.6216 25.266H78.0347L76.0801 35.1866M83.604 21.5255C86.6324 21.5255 88.8417 22.3094 90.2303 23.8772C91.619 25.4449 92.0369 27.6336 91.4829 30.4434C91.2549 31.6009 90.8692 32.6591 90.3263 33.618C89.7833 34.5769 89.0728 35.4546 88.1957 36.25C87.1503 37.2149 85.989 37.9024 84.7112 38.3122C83.4333 38.7229 81.8059 38.9273 79.8274 38.9273H75.3432L74.1016 45.2293H68.8666L73.5374 21.5257H83.6042" fill="white"/>
</g>
<defs>
<radialGradient id="paint0_radial_271_3299" cx="0" cy="0" r="1" gradientUnits="userSpaceOnUse" gradientTransform="translate(41.0073 16.6462) scale(59.8621 59.0448)">
<stop stop-color="#AEB2D5"/>
<stop offset="0.3" stop-color="#AEB2D5"/>
<stop offset="0.75" stop-color="#484C89"/>
<stop offset="1" stop-color="#484C89"/>
</radialGradient>
</defs>
</svg>
